<svg height="263.152" viewBox="0 0 314.072 263.152" width="314.072" xmlns="http://www.w3.org/2000/svg"><path d="m86.527 30.934c-5.413-9.243-14.412-17.482-26.406-24.883a5.955 5.955 0 0 0 -8.423 2.3c-7.967 15.607-8.992 31.6-6.267 47.8" fill="#badcee"/><path d="m45.43 57.152a1 1 0 0 1 -.985-.834c-3.061-18.2-.98-34.037 6.363-48.419a6.79 6.79 0 0 1 4.27-3.481 7.019 7.019 0 0 1 5.568.782c12.436 7.673 21.434 16.162 26.744 25.229a1 1 0 0 1 -1.726 1.011c-5.143-8.782-13.914-17.04-26.064-24.54a5.017 5.017 0 0 0 -3.979-.558 4.808 4.808 0 0 0 -3.028 2.464c-7.14 13.986-9.159 29.418-6.172 47.178a1 1 0 0 1 -.82 1.152.949.949 0 0 1 -.171.016z" fill="#112c41"/><path d="m49.275 188.98s1.105 43.32 21.638 45.362c19.641 1.951 30.143-40.217 30.143-40.217" fill="#6ecfea"/><path d="m72.268 235.409c-.483 0-.966-.024-1.454-.072-8.851-.88-15.555-9.245-19.389-24.193a113.487 113.487 0 0 1 -3.15-22.139 1 1 0 0 1 .974-1.025.986.986 0 0 1 1.026.974c.011.425 1.315 42.463 20.737 44.393 18.571 1.843 28.97-39.05 29.073-39.464a1 1 0 0 1 1.941.484 119.886 119.886 0 0 1 -7.78 21.041c-6.552 13.281-13.94 20.001-21.978 20.001z" fill="#112c41"/><path d="m313.072 119.152c0 65.17-66.71 118-149 118q-7.14 0-14.11-.53c-75.67-5.62-134.89-56.07-134.89-117.47 0-65.17 66.71-118 149-118 61.26 0 113.89 29.28 136.79 71.14a97.189 97.189 0 0 1 12.21 46.86z" fill="#badcee"/><path d="m164.072 238.152c-4.727 0-9.5-.179-14.185-.533-36.968-2.745-71.2-16.261-96.4-38.058-25.417-21.987-39.414-50.544-39.414-80.409 0-65.617 67.289-119 150-119 59.815 0 113.852 28.129 137.667 71.66a97.835 97.835 0 0 1 12.333 47.34c-.001 65.617-67.291 119-150.001 119zm0-236c-81.608 0-148 52.486-148 117 0 29.275 13.752 57.3 38.723 78.9 24.873 21.518 58.7 34.863 95.241 37.577 4.637.35 9.359.527 14.036.527 81.607 0 148-52.486 148-117a95.844 95.844 0 0 0 -12.088-46.38c-23.468-42.904-76.817-70.624-135.912-70.624z" fill="#112c41"/><path d="m313.072 119.152c0 65.17-66.71 118-149 118q-7.14 0-14.11-.53a71.671 71.671 0 0 1 6.11-17.47s30 2 57-7 53-31 72-63c15.74-26.5 15.7-63.3 15.79-76.86a97.189 97.189 0 0 1 12.21 46.86z" fill="#6ecfea"/><path d="m47.612 132.633a34.835 34.835 0 0 1 -8 13.2 10 10 0 0 1 -8.458 2.926l-19.724-2.625 7.4-55.625 18.424 2.451a10.334 10.334 0 0 1 8.136 6.186 36.94 36.94 0 0 1 1.832 5.13" fill="#badcee"/><path d="m32.444 149.843a10.792 10.792 0 0 1 -1.422-.094l-19.722-2.624a1 1 0 0 1 -.861-1.125l7.4-55.624a1 1 0 0 1 1.123-.86l18.423 2.451a11.387 11.387 0 0 1 8.925 6.784 37.4 37.4 0 0 1 1.881 5.278 1 1 0 1 1 -1.938.491 35.491 35.491 0 0 0 -1.782-4.983 9.379 9.379 0 0 0 -7.349-5.588l-17.432-2.317-7.137 53.643 18.733 2.492a9.054 9.054 0 0 0 7.613-2.636 33.983 33.983 0 0 0 7.767-12.822 1 1 0 0 1 1.892.648 35.984 35.984 0 0 1 -8.232 13.575 11.082 11.082 0 0 1 -7.882 3.311z" fill="#112c41"/><path d="m163.789 238c-4.727 0-9.5-.179-14.185-.533-36.968-2.745-71.2-16.261-96.4-38.058-25.417-21.988-39.415-50.544-39.415-80.409 0-65.617 67.29-119 150-119 59.811 0 113.853 28.128 137.667 71.66a97.819 97.819 0 0 1 12.333 47.34c0 65.617-67.289 119-150 119zm0-236c-81.607 0-148 52.486-148 117 0 29.275 13.752 57.295 38.723 78.9 24.874 21.518 58.7 34.863 95.241 37.577 4.638.35 9.359.527 14.036.527 81.607 0 148-52.486 148-117a95.844 95.844 0 0 0 -12.089-46.384c-23.467-42.9-76.816-70.62-135.911-70.62z" fill="#112c41"/><ellipse cx="16.592" cy="118.627" fill="#badcee" rx="28.345" ry="15.267" transform="matrix(.13187578 -.99126625 .99126625 .13187578 -103.187 119.43)"/><g fill="#112c41"><path d="m13.973 147.8a9.365 9.365 0 0 1 -1.251-.083c-4.424-.588-8.121-4.243-10.41-10.29-2.212-5.841-2.865-13.279-1.845-20.945 2.17-16.311 10.95-28.142 20-26.943 4.423.588 8.12 4.243 10.409 10.29 2.21 5.839 2.865 13.277 1.845 20.943s-3.6 14.674-7.257 19.732c-3.438 4.746-7.473 7.296-11.491 7.296zm5.227-56.345c-7.468 0-14.847 10.981-16.75 25.291-.977 7.343-.362 14.436 1.733 19.971 2.016 5.327 5.142 8.529 8.8 9.016s7.516-1.786 10.854-6.4c3.469-4.795 5.917-11.48 6.9-18.823s.363-14.438-1.737-19.973c-2.016-5.327-5.142-8.529-8.8-9.016a7.592 7.592 0 0 0 -1-.066z"/><ellipse cx="80.224" cy="80.696" rx="9.104" ry="6.828" transform="matrix(.27222987 -.96223225 .96223225 .27222987 -19.263 135.922)"/><ellipse cx="22.419" cy="120.598" rx="5.276" ry="3.957" transform="matrix(.27222987 -.96223225 .96223225 .27222987 -99.727 109.34)"/><ellipse cx="9.419" cy="116.598" rx="5.276" ry="3.957" transform="matrix(.27222987 -.96223225 .96223225 .27222987 -105.339 93.92)"/><ellipse cx="46.224" cy="70.696" rx="9.104" ry="6.828" transform="matrix(.27222987 -.96223225 .96223225 .27222987 -34.385 95.928)"/></g><path d="m112.072 54.152c5.8-9.9 15.43-18.718 28.272-26.642a6.376 6.376 0 0 1 9.018 2.466c8.53 16.709 9.627 33.831 6.71 51.176" fill="#badcee"/><path d="m156.073 82.152a.949.949 0 0 1 -.167-.014 1 1 0 0 1 -.82-1.152c3.2-19.03 1.037-35.567-6.615-50.556a5.222 5.222 0 0 0 -3.286-2.674 5.449 5.449 0 0 0 -4.316.605c-13.023 8.036-22.422 16.884-27.935 26.3a1 1 0 1 1 -1.725-1.011c5.68-9.7 15.3-18.778 28.61-26.988a7.451 7.451 0 0 1 5.905-.829 7.2 7.2 0 0 1 4.528 3.691c7.855 15.385 10.081 32.327 6.806 51.8a1 1 0 0 1 -.985.828z" fill="#112c41"/><path d="m106.072 219.152s6 43 29 43c22 0 29-43 29-43" fill="#badcee"/><path d="m135.072 263.152c-9.845 0-18.161-7.65-24.052-22.123a103.845 103.845 0 0 1 -5.939-21.739 1 1 0 0 1 1.981-.276c.059.421 6.144 42.138 28.01 42.138 20.9 0 27.944-41.739 28.013-42.161a1 1 0 0 1 1.974.322 109.952 109.952 0 0 1 -6.315 21.725c-6.056 14.467-14.244 22.114-23.672 22.114z" fill="#112c41"/><path d="m226.072 210.152s6.193 36.975 29 34c23-3 25-60 25-60" fill="#6ecfea"/><path d="m252.534 245.32c-8.635 0-16-5.689-21.411-16.608a73.69 73.69 0 0 1 -6.038-18.395 1 1 0 0 1 1.973-.33c.06.36 6.306 35.992 27.884 33.173 21.907-2.857 24.111-58.481 24.13-59.043a1 1 0 0 1 2 .07c-.083 2.362-2.3 57.882-25.87 60.957a20.72 20.72 0 0 1 -2.668.176z" fill="#112c41"/><path d="m214.672 24.382c-.62-.18-1.24-.36-1.87-.53a145.729 145.729 0 0 0 -30.31-5.04 151.544 151.544 0 0 0 -26.25.66l-7.96-6.54a109.556 109.556 0 0 1 27.59-2.95c12.91.18 25.58 2.46 34.27 7.08l3.858 6.238z" fill="#112c41"/><path d="m216.9 26.068-2.5-.725c-.614-.179-1.228-.357-1.852-.526a144.894 144.894 0 0 0 -30.11-5.007 150.875 150.875 0 0 0 -26.078.656l-.42.047-9.821-8.069 1.927-.482a111.013 111.013 0 0 1 27.848-2.98c14.03.2 26.362 2.752 34.724 7.2l.239.127zm-43.7-8.543q4.692 0 9.35.289a146.981 146.981 0 0 1 29.913 4.908l-3.033-4.9c-8.083-4.222-19.991-6.649-33.576-6.838a111.015 111.015 0 0 0 -25.383 2.458l6.076 4.992a153.662 153.662 0 0 1 16.653-.909z" fill="#112c41"/></svg>